<?xml version="1.0" encoding="UTF-8"?>
<!DOCTYPE svg PUBLIC "-//W3C//DTD SVG 1.1//EN" "http://www.w3.org/Graphics/SVG/1.1/DTD/svg11.dtd">
<!-- Creator: CorelDRAW 2018 (64-Bit Evaluation Version) -->
<svg xmlns="http://www.w3.org/2000/svg" xml:space="preserve" width="1.69847in" height="1.98609in" version="1.1" style="shape-rendering:geometricPrecision; text-rendering:geometricPrecision; image-rendering:optimizeQuality; fill-rule:evenodd; clip-rule:evenodd"
viewBox="0 0 2691.87 3147.72"
 xmlns:xlink="http://www.w3.org/1999/xlink">
 <defs>
  <style type="text/css">
   <![CDATA[
    .fil0 {fill:#FAA831}
    .fil1 {fill:#009DAF}
   ]]>
  </style>
 </defs>
 <g id="Layer_x0020_1">
  <metadata id="CorelCorpID_0Corel-Layer"/>
  <path class="fil0" d="M1346.32 1588.27l-716.19 -413.49 -254.92 441.54 101.91 59.1 0.12 -0.22 869.08 500.98 0 -95.21 -827.51 -477.76 62.18 -107.7 765.33 441.86 0 -86.67 -727.8 -420.19 69.09 -119.65 658.72 380.32 0 -102.89zm-826.55 -144.3l-2.71 0.19 -2.73 0.16 -2.66 0.51 -2.69 0.51 -2.58 0.85 -2.58 0.85 -2.48 1.14 -2.46 1.16 -2.3 1.47 -2.3 1.46 -2.08 1.73 -2.1 1.73 -1.88 1.99 -1.86 1.98 -1.59 2.19 -1.62 2.21 -1.3 2.4 -1.31 2.38 -1 2.53 -1 2.54 -0.68 2.63 -0.67 2.64 -0.35 2.7 -0.34 2.7 0 2.71 0 2.73 0.34 2.7 0.35 2.7 0.67 2.63 0.68 2.64 1 2.54 0.54 1.34 3.45 0.21 3.58 0.67 3.58 0.68 3.46 1.12 3.46 1.14 3.29 1.54 3.3 1.55 3.06 1.95 3.08 1.97 2.8 2.31 2.81 2.31 2.5 2.66 2.5 2.65 2.13 2.94 1.51 2.06 0.62 -0.02 2.67 -0.52 2.68 -0.5 2.6 -0.84 2.58 -0.85 2.46 -1.15 2.48 -1.17 2.3 -1.46 2.28 -1.45 2.1 -1.74 2.1 -1.72 1.86 -2 1.88 -1.99 1.59 -2.18 1.6 -2.2 1.31 -2.4 1.31 -2.4 1 -2.51 1 -2.54 0.68 -2.64 0.68 -2.63 0.34 -2.7 0.35 -2.7 0 -2.73 0 -2.71 -0.35 -2.7 -0.34 -2.7 -0.68 -2.64 -0.68 -2.63 -1 -2.54 -1 -2.53 -1.31 -2.38 -1.31 -2.4 -1.6 -2.21 -1.59 -2.19 -1.88 -1.98 -1.86 -1.99 -2.1 -1.73 -2.1 -1.73 -2.28 -1.46 -2.3 -1.47 -2.48 -1.16 -2.46 -1.14 -2.58 -0.85 -2.6 -0.85 -2.68 -0.51 -2.67 -0.51 -2.71 -0.16 -2.72 -0.19zm-43.51 75.03l-2.71 0.17 -2.72 0.16 -2.67 0.51 -2.68 0.51 -2.6 0.84 -2.58 0.85 -2.46 1.15 -2.48 1.17 -2.3 1.45 -2.29 1.46 -2.1 1.74 -2.1 1.72 -1.87 2 -1.85 1.98 -1.6 2.2 -1.61 2.2 -1.31 2.4 -1.31 2.4 -1 2.51 -1 2.54 -0.67 2.63 -0.68 2.64 -0.35 2.7 -0.33 2.7 0 2.73 0 2.71 0.33 2.7 0.35 2.7 0.68 2.64 0.67 2.63 1 2.54 1 2.53 1.31 2.38 1.31 2.4 1.61 2.21 1.6 2.18 1.85 1.99 1.87 2 2.1 1.72 2.1 1.74 2.29 1.46 2.3 1.47 2.48 1.15 2.46 1.15 2.58 0.85 2.6 0.84 2.68 0.5 2.67 0.52 2.72 0.16 2.71 0.19 2.71 -0.19 2.71 -0.16 2.68 -0.52 2.69 -0.5 2.58 -0.84 2.58 -0.85 2.48 -1.15 2.46 -1.15 2.3 -1.47 2.3 -1.46 2.08 -1.74 2.1 -1.72 1.87 -2 1.86 -1.99 1.59 -2.18 1.6 -2.21 1.32 -2.4 1.3 -2.38 1 -2.53 1.02 -2.54 0.67 -2.63 0.69 -2.64 0.33 -2.7 0.35 -2.7 0 -2.71 0 -2.73 -0.35 -2.7 -0.33 -2.7 -0.69 -2.64 -0.67 -2.63 -1.02 -2.54 -1 -2.51 -1.3 -2.4 -1.32 -2.4 -1.6 -2.2 -1.59 -2.2 -1.86 -1.98 -1.87 -2 -2.1 -1.72 -2.08 -1.74 -2.3 -1.46 -2.3 -1.45 -2.46 -1.17 -2.48 -1.15 -2.58 -0.85 -2.58 -0.84 -2.69 -0.51 -2.68 -0.51 -2.71 -0.16 -2.71 -0.17zm127.53 -219.56l-2.71 0.19 -2.71 0.16 -2.68 0.51 -2.68 0.51 -2.59 0.84 -2.58 0.84 -2.46 1.15 -2.47 1.16 -2.3 1.46 -2.29 1.47 -2.1 1.72 -2.1 1.74 -1.87 1.99 -1.85 1.97 -1.6 2.21 -1.6 2.21 -1.31 2.39 -1.31 2.38 -1 2.53 -0.99 2.55 -0.68 2.62 -0.68 2.63 -0.35 2.71 -0.34 2.7 0 2.71 0 2.73 0.34 2.7 0.35 2.7 0.68 2.63 0.68 2.63 0.99 2.55 1 2.51 1.31 2.38 1.31 2.41 1.6 2.2 1.6 2.2 1.85 1.99 1.87 1.98 2.1 1.74 2.1 1.73 2.29 1.46 2.3 1.46 2.47 1.16 2.46 1.15 2.58 0.85 2.59 0.83 2.68 0.51 2.68 0.51 2.71 0.17 2.71 0.17 2.73 -0.17 2.71 -0.17 2.66 -0.51 2.68 -0.51 2.58 -0.83 2.58 -0.85 2.47 -1.15 2.46 -1.16 2.3 -1.46 2.3 -1.46 2.09 -1.73 2.1 -1.74 1.87 -1.98 1.86 -1.99 1.61 -2.2 1.6 -2.2 1.31 -2.41 1.3 -2.38 1 -2.51 1.02 -2.55 0.67 -2.63 0.68 -2.63 0.34 -2.7 0.34 -2.7 0 -2.73 0 -2.71 -0.34 -2.7 -0.34 -2.71 -0.68 -2.63 -0.67 -2.62 -1.02 -2.55 -1 -2.53 -1.3 -2.38 -1.31 -2.39 -1.6 -2.21 -1.61 -2.21 -1.86 -1.97 -1.87 -1.99 -2.1 -1.74 -2.09 -1.72 -2.3 -1.47 -2.3 -1.46 -2.46 -1.16 -2.47 -1.15 -2.58 -0.84 -2.58 -0.84 -2.68 -0.51 -2.66 -0.51 -2.71 -0.16 -2.73 -0.19z"/>
  <path class="fil1" d="M1345.76 1588.27l716.19 -413.49 438.61 760.22 166.06 287.39c55.41,91.7 12.4,185.08 -58.86,232.97l-898.82 518.94c-114.55,66.13 -300.82,177.54 -362.31,173.05l0 -527.72 -1163.62 -671.33 191.8 -332.2 101.9 59.11 -150 259.81 640.29 369.08c448.79,258.7 312.63,256.83 761.22,-4.17l633.04 -368.32 -146.39 -256.4 -869.09 500.98 0 -95.22 827.51 -477.76 -62.18 -107.71 -765.33 441.86 0 -86.66 727.81 -420.19 -69.09 -119.65 -658.72 380.32 0 -102.89zm829.77 -144.3l2.73 0.19 2.71 0.16 2.66 0.51 2.68 0.51 2.58 0.84 2.58 0.86 2.47 1.14 2.46 1.16 2.3 1.47 2.3 1.46 2.09 1.74 2.1 1.72 1.88 1.99 1.85 1.98 1.6 2.19 1.62 2.21 1.3 2.4 1.31 2.38 1.02 2.53 0.99 2.54 0.68 2.63 0.67 2.63 0.35 2.71 0.33 2.7 0 2.71 0 2.73 -0.33 2.7 -0.35 2.7 -0.67 2.63 -0.68 2.64 -0.99 2.54 -0.54 1.34 -3.46 0.22 -3.57 0.67 -3.59 0.68 -3.46 1.12 -3.45 1.14 -3.31 1.53 -3.3 1.55 -3.06 1.95 -3.08 1.97 -2.8 2.31 -2.81 2.31 -2.5 2.66 -2.5 2.65 -2.13 2.94 -1.51 2.06 -0.62 -0.02 -2.68 -0.52 -2.67 -0.5 -2.6 -0.84 -2.58 -0.85 -2.46 -1.15 -2.47 -1.17 -2.3 -1.46 -2.28 -1.45 -2.1 -1.74 -2.1 -1.72 -1.86 -2 -1.87 -1.99 -1.59 -2.18 -1.6 -2.2 -1.31 -2.4 -1.31 -2.4 -1 -2.51 -1 -2.54 -0.67 -2.64 -0.69 -2.63 -0.34 -2.7 -0.35 -2.7 0 -2.73 0 -2.71 0.35 -2.7 0.34 -2.71 0.69 -2.63 0.67 -2.63 1 -2.54 1 -2.53 1.31 -2.38 1.31 -2.4 1.6 -2.21 1.59 -2.19 1.87 -1.98 1.86 -1.99 2.1 -1.72 2.1 -1.74 2.28 -1.46 2.3 -1.47 2.47 -1.16 2.46 -1.14 2.58 -0.86 2.6 -0.84 2.67 -0.51 2.68 -0.51 2.71 -0.16 2.71 -0.19zm43.52 75.03l2.71 0.17 2.73 0.16 2.66 0.51 2.68 0.51 2.6 0.84 2.58 0.85 2.47 1.15 2.46 1.17 2.3 1.45 2.3 1.46 2.08 1.74 2.1 1.72 1.87 2 1.86 1.98 1.59 2.19 1.62 2.21 1.3 2.4 1.31 2.4 1 2.51 1 2.54 0.69 2.63 0.67 2.64 0.34 2.7 0.34 2.7 0 2.73 0 2.71 -0.34 2.7 -0.34 2.7 -0.67 2.64 -0.69 2.63 -1 2.54 -1 2.53 -1.31 2.38 -1.3 2.4 -1.62 2.2 -1.59 2.18 -1.86 1.99 -1.87 2 -2.1 1.72 -2.08 1.74 -2.3 1.46 -2.3 1.47 -2.46 1.15 -2.47 1.15 -2.58 0.85 -2.6 0.84 -2.68 0.5 -2.66 0.52 -2.73 0.16 -2.71 0.19 -2.71 -0.19 -2.71 -0.16 -2.68 -0.52 -2.68 -0.5 -2.6 -0.84 -2.58 -0.85 -2.48 -1.15 -2.46 -1.15 -2.3 -1.47 -2.3 -1.46 -2.08 -1.74 -2.1 -1.72 -1.86 -2 -1.87 -1.99 -1.59 -2.18 -1.6 -2.2 -1.32 -2.4 -1.31 -2.38 -1 -2.53 -1.02 -2.54 -0.67 -2.63 -0.68 -2.64 -0.33 -2.7 -0.35 -2.7 0 -2.71 0 -2.73 0.35 -2.7 0.33 -2.7 0.68 -2.64 0.67 -2.63 1.02 -2.54 1 -2.51 1.31 -2.4 1.32 -2.4 1.6 -2.21 1.59 -2.19 1.87 -1.98 1.86 -2 2.1 -1.72 2.08 -1.74 2.3 -1.46 2.3 -1.45 2.46 -1.17 2.48 -1.15 2.58 -0.85 2.6 -0.84 2.68 -0.51 2.68 -0.51 2.71 -0.16 2.71 -0.17zm-127.53 -219.56l2.72 0.19 2.71 0.16 2.68 0.51 2.67 0.51 2.6 0.84 2.58 0.84 2.48 1.15 2.46 1.16 2.3 1.46 2.3 1.47 2.09 1.72 2.1 1.74 1.88 1.99 1.84 1.97 1.61 2.21 1.6 2.21 1.31 2.4 1.31 2.38 1 2.53 1 2.55 0.67 2.62 0.68 2.63 0.35 2.71 0.34 2.7 0 2.71 0 2.73 -0.34 2.7 -0.35 2.7 -0.68 2.63 -0.67 2.64 -1 2.54 -1 2.51 -1.31 2.38 -1.31 2.41 -1.6 2.2 -1.61 2.19 -1.84 2 -1.88 1.98 -2.1 1.74 -2.09 1.74 -2.3 1.45 -2.3 1.46 -2.46 1.16 -2.48 1.15 -2.58 0.85 -2.6 0.83 -2.67 0.51 -2.68 0.51 -2.71 0.17 -2.72 0.17 -2.71 -0.17 -2.71 -0.17 -2.68 -0.51 -2.67 -0.51 -2.6 -0.83 -2.58 -0.85 -2.48 -1.15 -2.46 -1.16 -2.3 -1.46 -2.3 -1.45 -2.08 -1.74 -2.1 -1.74 -1.88 -1.98 -1.86 -2 -1.59 -2.19 -1.6 -2.2 -1.32 -2.41 -1.3 -2.38 -1 -2.51 -1.02 -2.54 -0.67 -2.64 -0.68 -2.63 -0.34 -2.7 -0.35 -2.7 0 -2.73 0 -2.71 0.35 -2.7 0.34 -2.71 0.68 -2.63 0.67 -2.62 1.02 -2.55 1 -2.53 1.3 -2.38 1.32 -2.4 1.6 -2.21 1.59 -2.21 1.86 -1.97 1.88 -1.99 2.1 -1.74 2.08 -1.72 2.3 -1.47 2.3 -1.46 2.46 -1.16 2.48 -1.15 2.58 -0.84 2.6 -0.84 2.67 -0.51 2.68 -0.51 2.71 -0.16 2.71 -0.19z"/>
  <path class="fil1" d="M1346.31 687.69l0 0 0.03 -64.09 196.43 -113.41 -196.21 -340.15 0 0 0.06 -170.03c23.76,0 47.78,12.09 63.48,44.78l272.69 472.32 336.51 582.86 -672.98 388.55 -0.01 -112.6 522.21 -301.5 -56.68 -98.17 -465.53 268.77 0 -105.42 419.89 -242.42 -41.51 -71.88 -378.38 218.46 0.01 -120.93 326.02 -188.23 -59.87 -103.7 -266.15 153.66 0 -90.26 0 -6.61z"/>
  <path class="fil0" d="M183.55 1948.28l1163.07 671.33 0 527.73c-91.99,8.02 -268.16,-117.92 -361.27,-171.69l-901.21 -520.31c-71.26,-47.88 -114.28,-141.27 -58.85,-232.96l158.26 -274.11z"/>
  <path class="fil0" d="M1013.14 511.37l-339.83 588.59 672.98 388.55 0.01 -112.6 -522.21 -301.5 56.68 -98.17 465.53 268.77 0 -105.42 -419.89 -242.42 41.5 -71.88 378.39 218.46 -0.01 -120.93 -326.01 -188.23 54.21 -93.89 271.81 143.86 0.06 -160.98 -0.27 0.16 -200.53 -106.14 200.98 -347.56 0.07 -170.03c-14.77,1.27 -44.53,5.28 -64.08,44.76l-269.39 466.6z"/>
 </g>
</svg>
