<?xml version="1.0" encoding="UTF-8"?>
<!DOCTYPE svg PUBLIC "-//W3C//DTD SVG 1.1//EN" "http://www.w3.org/Graphics/SVG/1.1/DTD/svg11.dtd">
<!-- Creator: CorelDRAW 2018 (64-Bit Evaluation Version) -->
<svg xmlns="http://www.w3.org/2000/svg" xml:space="preserve" width="3.9572in" height="1.09466in" version="1.1" style="shape-rendering:geometricPrecision; text-rendering:geometricPrecision; image-rendering:optimizeQuality; fill-rule:evenodd; clip-rule:evenodd"
viewBox="0 0 4272.67 1181.93"
 xmlns:xlink="http://www.w3.org/1999/xlink">
 <defs>
  <style type="text/css">
   <![CDATA[
    .str0 {stroke:#FAA831;stroke-width:7.5;stroke-miterlimit:2.61313}
    .str1 {stroke:#009DAF;stroke-width:7.5;stroke-miterlimit:2.61313}
    .fil0 {fill:#FAA831}
    .fil1 {fill:#009DAF}
    .fil3 {fill:#FEFEFE;fill-rule:nonzero}
    .fil2 {fill:#727376;fill-rule:nonzero}
   ]]>
  </style>
 </defs>
 <g id="Layer_x0020_1">
  <metadata id="CorelCorpID_0Corel-Layer"/>
  <path class="fil0 str0" d="M1030.47 823.87l2069.53 0c52.07,0 94.68,42.64 94.68,94.68l0 141.26c0,52.04 -42.63,94.68 -94.68,94.68l-2069.53 0 0 -330.61z"/>
  <path class="fil1 str1" d="M98.43 823.87l932.03 0 0 330.62 -932.03 0c-52.02,0 -94.68,-42.6 -94.68,-94.68l0 -141.26c0,-52.08 42.61,-94.68 94.68,-94.68z"/>
  <path class="fil0" d="M3770.84 592.35l-267.1 -154.21 -95.07 164.67 38.01 22.04 0.04 -0.09 324.12 186.84 0 -35.51 -308.62 -178.18 23.19 -40.17 285.43 164.79 0 -32.32 -271.43 -156.71 25.76 -44.63 245.67 141.84 0 -38.37zm-308.26 -53.82l-1.01 0.07 -1.02 0.06 -0.99 0.19 -1 0.19 -0.96 0.31 -0.96 0.32 -0.92 0.43 -0.92 0.43 -0.86 0.55 -0.86 0.54 -0.78 0.65 -0.78 0.64 -0.7 0.74 -0.69 0.74 -0.6 0.82 -0.6 0.82 -0.48 0.89 -0.49 0.89 -0.37 0.94 -0.37 0.95 -0.26 0.98 -0.25 0.98 -0.13 1.01 -0.12 1.01 0 1.01 0 1.02 0.12 1.01 0.13 1.01 0.25 0.98 0.26 0.98 0.37 0.95 0.2 0.5 1.29 0.08 1.33 0.25 1.33 0.26 1.29 0.42 1.29 0.43 1.22 0.57 1.23 0.58 1.14 0.73 1.15 0.73 1.04 0.86 1.05 0.86 0.93 0.99 0.93 0.99 0.79 1.1 0.57 0.77 0.23 -0.01 0.99 -0.2 1 -0.18 0.97 -0.31 0.96 -0.32 0.92 -0.43 0.92 -0.43 0.86 -0.54 0.85 -0.54 0.78 -0.65 0.78 -0.64 0.7 -0.74 0.7 -0.74 0.59 -0.82 0.6 -0.82 0.49 -0.89 0.49 -0.89 0.37 -0.94 0.37 -0.95 0.26 -0.98 0.26 -0.98 0.12 -1.01 0.13 -1.01 0 -1.02 0 -1.01 -0.13 -1.01 -0.12 -1.01 -0.26 -0.98 -0.26 -0.98 -0.37 -0.95 -0.37 -0.94 -0.49 -0.89 -0.49 -0.89 -0.6 -0.82 -0.59 -0.82 -0.7 -0.74 -0.7 -0.74 -0.78 -0.64 -0.78 -0.65 -0.85 -0.54 -0.86 -0.55 -0.92 -0.43 -0.92 -0.43 -0.96 -0.32 -0.97 -0.31 -1 -0.19 -0.99 -0.19 -1.02 -0.06 -1.01 -0.07zm-16.23 27.98l-1.02 0.06 -1.01 0.06 -1 0.19 -0.99 0.19 -0.97 0.31 -0.96 0.32 -0.91 0.43 -0.93 0.43 -0.85 0.54 -0.85 0.54 -0.78 0.65 -0.79 0.65 -0.7 0.74 -0.69 0.74 -0.6 0.82 -0.6 0.82 -0.49 0.89 -0.49 0.89 -0.37 0.94 -0.37 0.95 -0.25 0.98 -0.26 0.98 -0.13 1.01 -0.12 1.01 0 1.02 0 1.01 0.12 1.01 0.13 1.01 0.26 0.98 0.25 0.99 0.37 0.95 0.37 0.94 0.49 0.89 0.49 0.89 0.6 0.82 0.6 0.81 0.69 0.74 0.7 0.74 0.79 0.64 0.78 0.65 0.85 0.54 0.85 0.55 0.93 0.43 0.91 0.43 0.96 0.32 0.97 0.31 0.99 0.18 1 0.2 1.01 0.06 1.02 0.07 1.01 -0.07 1.01 -0.06 1 -0.2 1 -0.18 0.96 -0.31 0.96 -0.32 0.92 -0.43 0.92 -0.43 0.86 -0.55 0.85 -0.54 0.78 -0.65 0.79 -0.64 0.7 -0.74 0.69 -0.74 0.6 -0.81 0.6 -0.82 0.49 -0.89 0.48 -0.89 0.37 -0.94 0.38 -0.95 0.25 -0.99 0.25 -0.98 0.13 -1.01 0.13 -1.01 0 -1.01 0 -1.02 -0.13 -1.01 -0.13 -1.01 -0.25 -0.98 -0.25 -0.98 -0.38 -0.95 -0.37 -0.94 -0.48 -0.89 -0.49 -0.89 -0.6 -0.82 -0.6 -0.82 -0.69 -0.74 -0.7 -0.74 -0.79 -0.65 -0.78 -0.65 -0.85 -0.54 -0.86 -0.54 -0.92 -0.43 -0.92 -0.43 -0.96 -0.32 -0.96 -0.31 -1 -0.19 -1 -0.19 -1.01 -0.06 -1.01 -0.06zm47.56 -81.88l-1.01 0.07 -1.01 0.06 -1 0.19 -0.99 0.19 -0.97 0.31 -0.96 0.31 -0.92 0.43 -0.92 0.44 -0.86 0.54 -0.85 0.55 -0.78 0.64 -0.79 0.65 -0.7 0.74 -0.69 0.74 -0.6 0.82 -0.6 0.82 -0.49 0.89 -0.49 0.89 -0.37 0.94 -0.37 0.95 -0.26 0.98 -0.26 0.98 -0.13 1.01 -0.12 1.01 0 1.02 0 1.02 0.12 1.01 0.13 1.01 0.26 0.98 0.26 0.99 0.37 0.95 0.37 0.94 0.49 0.89 0.49 0.9 0.6 0.82 0.6 0.82 0.69 0.74 0.7 0.74 0.79 0.65 0.78 0.65 0.85 0.54 0.86 0.54 0.92 0.43 0.92 0.43 0.96 0.32 0.97 0.31 0.99 0.19 1 0.19 1.01 0.06 1.01 0.06 1.02 -0.06 1.01 -0.06 0.99 -0.19 1 -0.19 0.96 -0.31 0.96 -0.32 0.92 -0.43 0.92 -0.43 0.86 -0.54 0.85 -0.54 0.78 -0.65 0.79 -0.65 0.7 -0.74 0.69 -0.74 0.6 -0.82 0.6 -0.82 0.49 -0.9 0.48 -0.89 0.37 -0.94 0.38 -0.95 0.25 -0.99 0.26 -0.98 0.13 -1.01 0.13 -1.01 0 -1.02 0 -1.02 -0.13 -1.01 -0.13 -1.01 -0.26 -0.98 -0.25 -0.98 -0.38 -0.95 -0.37 -0.94 -0.48 -0.89 -0.49 -0.89 -0.6 -0.82 -0.6 -0.82 -0.69 -0.74 -0.7 -0.74 -0.79 -0.65 -0.78 -0.64 -0.85 -0.55 -0.86 -0.54 -0.92 -0.44 -0.92 -0.43 -0.96 -0.31 -0.96 -0.31 -1 -0.19 -0.99 -0.19 -1.01 -0.06 -1.02 -0.07z"/>
  <path class="fil1" d="M3770.63 592.35l267.1 -154.21 163.58 283.53 61.93 107.18c20.67,34.2 4.62,69.03 -21.95,86.88l-335.22 193.54c-42.73,24.66 -112.19,66.22 -135.13,64.54l0 -196.82 -433.98 -250.38 71.53 -123.9 38 22.05 -55.94 96.9 238.8 137.65c167.37,96.48 116.6,95.78 283.9,-1.56l236.09 -137.37 -54.6 -95.62 -324.13 186.84 0 -35.51 308.62 -178.18 -23.19 -40.17 -285.43 164.79 0 -32.32 271.44 -156.71 -25.77 -44.63 -245.67 141.84 0 -38.37zm309.47 -53.82l1.02 0.07 1.01 0.06 0.99 0.19 1 0.19 0.96 0.31 0.96 0.32 0.92 0.43 0.92 0.43 0.86 0.55 0.86 0.54 0.78 0.65 0.78 0.64 0.7 0.74 0.69 0.74 0.6 0.82 0.6 0.82 0.48 0.89 0.49 0.89 0.38 0.94 0.37 0.95 0.26 0.99 0.25 0.98 0.13 1.01 0.12 1.01 0 1.01 0 1.02 -0.12 1.01 -0.13 1.01 -0.25 0.98 -0.26 0.98 -0.37 0.95 -0.2 0.5 -1.29 0.08 -1.33 0.25 -1.34 0.26 -1.29 0.42 -1.28 0.43 -1.23 0.57 -1.23 0.58 -1.14 0.73 -1.15 0.73 -1.04 0.86 -1.05 0.86 -0.93 0.99 -0.94 0.99 -0.79 1.1 -0.57 0.77 -0.23 -0.01 -0.99 -0.2 -1 -0.19 -0.97 -0.31 -0.96 -0.32 -0.92 -0.43 -0.92 -0.43 -0.86 -0.54 -0.85 -0.54 -0.78 -0.65 -0.78 -0.64 -0.7 -0.74 -0.7 -0.74 -0.6 -0.81 -0.6 -0.82 -0.49 -0.89 -0.49 -0.89 -0.37 -0.94 -0.37 -0.95 -0.25 -0.98 -0.26 -0.98 -0.12 -1.01 -0.13 -1.01 0 -1.02 0 -1.01 0.13 -1.01 0.12 -1.01 0.26 -0.98 0.25 -0.99 0.37 -0.95 0.37 -0.94 0.49 -0.89 0.49 -0.89 0.6 -0.82 0.6 -0.82 0.7 -0.74 0.7 -0.74 0.78 -0.64 0.78 -0.65 0.85 -0.54 0.86 -0.55 0.92 -0.43 0.92 -0.43 0.96 -0.32 0.97 -0.31 1 -0.19 0.99 -0.19 1.02 -0.06 1.01 -0.07zm16.23 27.98l1.02 0.06 1.02 0.06 0.99 0.19 0.99 0.19 0.97 0.31 0.96 0.32 0.93 0.43 0.92 0.43 0.85 0.54 0.86 0.54 0.78 0.65 0.79 0.65 0.7 0.74 0.69 0.74 0.6 0.82 0.6 0.82 0.48 0.89 0.49 0.89 0.37 0.94 0.37 0.95 0.25 0.98 0.25 0.98 0.13 1.01 0.12 1.01 0 1.02 0 1.01 -0.12 1.01 -0.13 1.01 -0.25 0.98 -0.25 0.99 -0.37 0.95 -0.37 0.94 -0.49 0.89 -0.48 0.89 -0.6 0.82 -0.6 0.81 -0.69 0.74 -0.7 0.74 -0.79 0.64 -0.78 0.65 -0.86 0.54 -0.85 0.55 -0.92 0.43 -0.93 0.43 -0.96 0.32 -0.97 0.31 -0.99 0.18 -0.99 0.2 -1.02 0.06 -1.02 0.07 -1.01 -0.07 -1.01 -0.06 -1 -0.2 -1 -0.18 -0.96 -0.31 -0.96 -0.32 -0.92 -0.43 -0.92 -0.43 -0.86 -0.55 -0.85 -0.54 -0.78 -0.65 -0.78 -0.64 -0.69 -0.74 -0.7 -0.74 -0.6 -0.81 -0.6 -0.82 -0.49 -0.89 -0.49 -0.89 -0.37 -0.94 -0.38 -0.95 -0.25 -0.99 -0.25 -0.98 -0.13 -1.01 -0.13 -1.01 0 -1.01 0 -1.02 0.13 -1.01 0.13 -1.01 0.25 -0.98 0.25 -0.98 0.38 -0.95 0.37 -0.94 0.49 -0.89 0.49 -0.89 0.6 -0.82 0.6 -0.82 0.7 -0.74 0.69 -0.74 0.78 -0.65 0.78 -0.65 0.85 -0.54 0.86 -0.54 0.92 -0.43 0.92 -0.43 0.96 -0.32 0.96 -0.31 1 -0.19 1 -0.19 1.01 -0.06 1.01 -0.06zm-47.56 -81.88l1.02 0.07 1.01 0.06 1 0.19 0.99 0.19 0.97 0.31 0.96 0.31 0.92 0.43 0.92 0.44 0.85 0.54 0.86 0.55 0.78 0.64 0.79 0.65 0.7 0.74 0.69 0.74 0.6 0.82 0.6 0.82 0.49 0.89 0.49 0.89 0.37 0.94 0.37 0.95 0.25 0.98 0.26 0.98 0.13 1.01 0.12 1.01 0 1.02 0 1.02 -0.12 1.01 -0.13 1.01 -0.26 0.98 -0.25 0.99 -0.37 0.95 -0.37 0.94 -0.49 0.89 -0.49 0.9 -0.6 0.82 -0.6 0.82 -0.69 0.74 -0.7 0.74 -0.79 0.65 -0.78 0.65 -0.86 0.54 -0.85 0.54 -0.92 0.43 -0.92 0.43 -0.96 0.32 -0.97 0.31 -0.99 0.19 -1 0.19 -1.01 0.06 -1.02 0.06 -1.01 -0.06 -1.01 -0.06 -1 -0.19 -0.99 -0.19 -0.97 -0.31 -0.96 -0.32 -0.92 -0.43 -0.92 -0.43 -0.86 -0.54 -0.85 -0.54 -0.78 -0.65 -0.79 -0.65 -0.7 -0.74 -0.69 -0.74 -0.6 -0.82 -0.6 -0.82 -0.49 -0.9 -0.48 -0.89 -0.37 -0.94 -0.38 -0.95 -0.25 -0.99 -0.25 -0.98 -0.13 -1.01 -0.13 -1.01 0 -1.02 0 -1.02 0.13 -1.01 0.13 -1.01 0.25 -0.98 0.25 -0.98 0.38 -0.95 0.37 -0.94 0.48 -0.89 0.49 -0.89 0.6 -0.82 0.6 -0.82 0.69 -0.74 0.7 -0.74 0.79 -0.65 0.78 -0.64 0.85 -0.55 0.86 -0.54 0.92 -0.44 0.92 -0.43 0.96 -0.31 0.97 -0.31 0.99 -0.19 1 -0.19 1.01 -0.06 1.01 -0.07z"/>
  <path class="fil1" d="M3770.84 256.48l0 0 0.01 -23.9 73.26 -42.3 -73.18 -126.86 0 0 0.03 -63.41c8.86,0 17.82,4.51 23.67,16.7l101.7 176.15 125.5 217.38 -250.99 144.91 -0 -42 194.76 -112.44 -21.14 -36.61 -173.62 100.24 0 -39.32 156.6 -90.41 -15.48 -26.81 -141.12 81.48 0 -45.1 121.59 -70.2 -22.33 -38.67 -99.26 57.31 0 -33.67 0 -2.46z"/>
  <path class="fil0" d="M3337.18 726.62l433.77 250.37 0 196.82c-34.31,2.99 -100.01,-43.98 -134.74,-64.03l-336.11 -194.05c-26.58,-17.86 -42.62,-52.69 -21.95,-86.88l59.02 -102.23z"/>
  <path class="fil0" d="M3646.59 190.72l-126.74 219.52 250.99 144.91 0 -42 -194.76 -112.44 21.14 -36.61 173.62 100.24 0 -39.32 -156.6 -90.41 15.48 -26.81 141.12 81.48 -0 -45.1 -121.59 -70.2 20.22 -35.01 101.37 53.65 0.03 -60.04 -0.1 0.06 -74.79 -39.58 74.96 -129.62 0.03 -63.41c-5.51,0.47 -16.61,1.97 -23.9,16.69l-100.47 174.02z"/>
  <path class="fil2" d="M89.26 237.7l0 325.1c0,2.86 0.17,5.2 0.51,7.31 0.34,2.01 1.09,4.36 2.18,6.96 2.01,4.11 4.87,7.97 8.65,11.58 8.05,7.55 17.62,11.33 28.78,11.33l0 40.03c-10.32,0 -20.56,-1.93 -30.55,-5.88 -9.98,-3.94 -18.62,-9.39 -26.02,-16.28 -7.38,-6.88 -13.17,-15.1 -17.45,-24.75 -4.28,-9.73 -6.38,-19.8 -6.38,-30.3l0 -325.1 40.29 0zm119.67 81.06l0 244.88c0,10.32 -2.18,20.39 -6.63,30.13 -4.45,9.73 -10.24,18.04 -17.46,24.92 -7.21,6.88 -15.77,12.33 -25.68,16.28 -9.9,3.86 -20.14,5.87 -30.8,5.87l0 -40.12 1.51 0c10.57,-0.33 19.8,-4.11 27.44,-11.24 3.94,-3.61 6.8,-7.64 8.64,-12.09 1.76,-4.45 2.68,-8.98 2.68,-13.76l0 -244.88 40.29 0zm157.27 0l0 325.1c0,10.67 -2.18,20.73 -6.63,30.38 -4.45,9.57 -10.32,17.88 -17.53,24.84 -7.22,6.97 -15.91,12.27 -25.85,16.12 -9.5,3.68 -73.04,5.87 -83.17,5.87l-1.01 0 0 -40.11 1.25 0c4.54,0 63.04,-1.22 68.07,-3.19 5.43,-2.12 9.73,-4.78 13.01,-8.06 7.72,-7.22 11.58,-15.86 11.58,-25.85l0 -325.1 40.28 0zm85.77 321.25l40.12 0 0 -352.8 -40.12 0 0 352.8zm565.45 -39.36c11.49,0 20.85,-4.08 28.78,-11.49 7.51,-7.02 11.58,-15.36 11.58,-25.85l0 -244.37 40.03 0 0 244.37c0,10.66 -2.1,20.73 -6.38,30.21 -4.28,9.56 -10.15,17.79 -17.7,24.84 -7.55,7.05 -16.03,12.59 -25.52,16.45 -5.28,2.18 -10.24,3.6 -14.93,4.45 -4.62,0.83 -9.91,1.26 -15.86,1.26l-371.73 0c-10.98,0 -21.42,-2.05 -31.3,-6.13 -9.84,-4.06 -18.39,-9.65 -25.76,-16.61 -7.38,-6.96 -13.08,-15.21 -17.2,-24.76 -4.09,-9.49 -6.21,-19.38 -6.21,-29.71l0 -166.92c0,-10.49 2.29,-20.55 6.72,-30.3 4.38,-9.63 10.24,-18.04 17.53,-25.09 7.3,-7.04 15.86,-12.42 25.6,-16.28 9.73,-3.86 19.97,-5.79 30.63,-5.79l40.54 0 0 40.28 -40.54 0c-11.15,0 -20.77,3.83 -28.78,11.33 -3.72,3.49 -6.67,7.37 -8.64,11.92 -1.96,4.51 -2.94,9.15 -2.94,13.93l0 166.92c0,5.02 1.06,9.88 3.1,14.35 2.07,4.5 4.95,8.48 8.82,11.92 3.85,3.43 8.16,6.17 12.92,8.14 4.79,1.97 9.9,2.93 15.52,2.93l371.73 0zm239.33 -281.88l0 325.1c0,10.67 -2.18,20.73 -6.63,30.38 -4.45,9.57 -10.32,17.88 -17.53,24.84 -7.22,6.97 -15.91,12.27 -25.85,16.12 -9.5,3.68 -73.04,5.87 -83.17,5.87l-1.01 0 0 -40.11 1.25 0c4.54,0 63.04,-1.22 68.07,-3.19 5.43,-2.12 9.73,-4.78 13.01,-8.06 7.72,-7.22 11.58,-15.86 11.58,-25.85l0 -325.1 40.28 0zm127.06 -81.06l0 325.1c0,2.86 0.17,5.2 0.51,7.31 0.34,2.01 1.09,4.36 2.18,6.96 2.01,4.11 4.86,7.97 8.64,11.58 8.05,7.55 17.62,11.33 28.78,11.33l0 40.03c-10.32,0 -20.56,-1.93 -30.55,-5.88 -9.98,-3.94 -18.62,-9.39 -26.02,-16.28 -7.38,-6.88 -13.17,-15.1 -17.45,-24.75 -4.28,-9.73 -6.38,-19.8 -6.38,-30.3l0 -325.1 40.28 0zm78.39 81.57l200.65 0c10.57,0 20.73,1.84 30.3,5.62 9.65,3.78 18.21,9.31 25.76,16.45 7.64,7.21 13.51,15.6 17.79,25.09 4.28,9.48 6.46,19.47 6.46,29.96l0 166.5c0,5.45 1.01,10.24 2.94,14.52 2.01,4.28 4.79,8.05 8.39,11.49 8.06,7.55 17.62,11.33 28.79,11.33l0 40.78c-11.16,0 -21.4,-1.93 -30.63,-5.79 -9.31,-3.86 -17.87,-9.48 -25.76,-16.87 -1.51,-0.92 -2.86,-2.27 -3.95,-3.94l-4.03 3.69c-7.04,6.88 -15.52,12.34 -25.34,16.37 -9.82,4.03 -20.14,6.04 -30.72,6.04l-240.77 0 0 -40.28 240.77 0c5.37,0 10.49,-1.01 15.36,-2.94 4.78,-2.01 9.23,-4.78 13.09,-8.39 7.72,-7.13 11.58,-15.77 11.58,-25.76l0 -166.49c0,-9.99 -3.86,-18.63 -11.58,-25.76 -3.61,-3.61 -7.97,-6.38 -13.26,-8.4 -5.2,-1.93 -10.33,-2.94 -15.19,-2.94l-200.65 0 0 -40.28zm400.3 -0.84l-0.09 244.88c0,10.32 -2.18,20.39 -6.63,30.13 -4.45,9.73 -10.24,18.04 -17.46,24.92 -7.21,6.89 -15.77,12.34 -25.76,16.28 -9.48,3.77 -19.3,5.71 -29.46,5.88l-1.25 0 0 -40.12 1.5 0c10.57,-0.34 19.8,-4.03 27.44,-11.25 3.94,-3.61 6.8,-7.63 8.64,-12.09 1.76,-4.45 2.68,-8.98 2.68,-13.76l0 -244.88 40.37 0zm212.73 39.61l-40.37 0c-11.07,0 -20.8,3.71 -28.7,11.33 -4.18,4.04 -7.15,7.85 -8.9,11.49 -1.18,2.47 -1.84,4.71 -2.18,6.72 -0.33,1.93 -0.51,4.54 -0.51,7.8l0 167.25c0,9.98 3.69,18.75 11.58,25.77 4.27,3.8 8.71,6.61 13.08,8.39 5.29,2.16 10.67,2.93 15.78,2.93l274.67 0c3.44,0 6.62,-0.46 9.56,-1.26 2.92,-0.79 5.12,-1.42 6.38,-1.93 5.28,-2.27 9.73,-5.11 13.43,-8.39 3.69,-3.27 6.46,-7.14 8.31,-11.49 1.76,-4.45 2.69,-9.15 2.69,-14.02l0 -245.38 40.28 0 0 245.55c0,9.99 3.86,18.63 11.59,25.85 3.77,3.78 7.97,6.63 12.75,8.65 3.27,1.26 6.13,2.1 8.65,2.43 2.1,0 4.19,0 6.38,0l0.92 0 0 40.29 -0.92 0c-4.79,0 -9.82,-0.59 -15.02,-1.76 -5.37,-1.09 -10.4,-2.61 -15.02,-4.37 -9.82,-4.11 -18.38,-9.57 -25.6,-16.28l-3.94 -3.95 -3.94 3.95c-4.03,3.94 -8.14,7.22 -12.17,9.73 -4.03,2.51 -8.65,4.95 -13.85,7.13 -5.29,2.18 -10.27,3.52 -14.78,4.28 -3.97,0.66 -9.23,1.26 -15.77,1.26l-274.59 0c-10.82,0 -21.24,-2.01 -31.13,-6.13 -9.9,-4.11 -18.19,-9.69 -25.26,-16.28 -7.69,-7.16 -13.83,-15.28 -18.04,-24.84 -4.17,-9.49 -6.3,-19.55 -6.3,-30.21l0 -167.34c0,-10.32 2.22,-20.42 6.72,-30.38 4.48,-9.93 10.5,-18.38 17.96,-25.34 7.46,-6.96 15.85,-12.36 25.17,-16.12 9.39,-3.79 19.64,-5.62 30.72,-5.62l40.37 0 0 40.27zm445.45 -39.78l0 244.88c0,9.82 3.86,18.38 11.58,25.76 3.78,3.78 7.97,6.63 12.75,8.47 4.79,1.94 15.03,2.86 30.72,2.86l0 40.28 -6.12 0c-17.71,-0.34 -30.97,-2.35 -39.86,-6.13 -9.66,-4.11 -18.05,-9.56 -25.09,-16.28l-3.95 -3.94 -4.03 3.94c-7.22,7.05 -15.77,12.59 -25.76,16.53 -9.9,3.94 -25.26,5.88 -46.08,5.88l0 -40.28c21.49,0 36.09,-3.78 43.89,-11.33 7.8,-7.55 11.66,-16.12 11.66,-25.76l0 -244.88 40.28 0zm133.51 0.51l0 244.88c0,10.32 -2.18,20.39 -6.63,30.13 -4.45,9.73 -10.23,18.04 -17.45,24.92 -7.21,6.88 -15.77,12.33 -25.76,16.28 -9.48,3.69 -19.3,5.7 -29.45,5.87l-1.25 0 0 -40.12c11.32,0 20.97,-3.77 28.95,-11.24 3.94,-3.61 6.8,-7.64 8.65,-12.09 1.76,-4.45 2.68,-8.98 2.68,-13.76l0 -244.88 40.28 0zm122.53 -81.06l0 325.1c0,2.86 0.17,5.2 0.51,7.31 0.34,2.01 1.09,4.36 2.18,6.96 2.01,4.11 4.86,7.97 8.65,11.58 8.05,7.55 17.62,11.33 28.78,11.33l0 40.03c-10.32,0 -20.56,-1.93 -30.55,-5.88 -9.98,-3.94 -18.62,-9.39 -26.02,-16.28 -7.38,-6.88 -13.17,-15.1 -17.45,-24.75 -4.28,-9.73 -6.38,-19.8 -6.38,-30.3l0 -325.1 40.29 0zm239.01 81.57l0 244.54c0,4.28 1,8.9 2.93,13.76 2.1,4.61 4.96,8.56 8.56,11.83 7.72,7.38 16.79,11.15 27.44,11.32l2.18 0c4.62,-0.17 9.31,-1.17 14.19,-2.93 5.28,-2.01 9.73,-4.79 13.51,-8.39 7.47,-7.22 11.25,-15.78 11.25,-25.6l0 -244.54 40.29 0 0 244.54c0,5.21 -0.43,9.9 -1.26,14.1 -0.75,4.2 -1.43,7.05 -1.93,8.65 -0.51,1.51 -1.6,3.95 -3.19,7.22 -3.95,9.39 -9.57,17.45 -16.96,24.25 -7.38,6.8 -16.12,12.34 -26.1,16.62 -9.98,4.28 -20.31,6.38 -30.96,6.38 -11.33,0 -21.31,-1.84 -30.13,-5.54 -8.73,-3.69 -17.37,-9.39 -25.93,-17.03 -0.92,-0.51 -2.27,-1.84 -3.86,-3.94 -1.5,1.93 -2.85,3.27 -3.94,3.94 -6.72,6.55 -15.19,12 -25.35,16.45 -4.61,1.76 -9.65,3.27 -15.1,4.45 -5.54,1.09 -10.83,1.67 -15.86,1.67 -10.49,0 -20.64,-2.01 -30.38,-6.04 -9.73,-4.03 -18.38,-9.57 -25.93,-16.62l-3.94 -3.86 -3.69 3.86c-7.05,6.63 -15.53,12 -25.51,16.28 -9.99,4.28 -20.4,6.38 -30.97,6.38l0 -40.29c11.75,0 21.4,-3.69 28.88,-11.15 7.47,-7.48 11.15,-16.03 11.15,-25.77l0 -244.54 40.29 0 0 244.54c0,4.79 1,9.32 3.1,13.68 2.01,4.36 4.87,8.3 8.47,11.92 7.47,7.55 16.96,11.32 28.45,11.32l1.26 0c4.36,-0.17 8.98,-1.17 13.76,-2.93 5.04,-2.01 9.65,-4.79 13.68,-8.39 7.55,-7.05 11.32,-15.61 11.32,-25.6l0 -244.54 40.29 0z"/>
  <path class="fil3" d="M67.63 1033.91l27.45 0 0 4.63c0,14.68 1.13,25.47 3.33,32.42 2.2,6.95 5.82,11.86 10.9,14.74 3.95,2.21 10.11,3.79 18.35,4.69 8.25,0.96 25.31,1.41 51.12,1.41 14,0 24.85,-0.9 32.58,-2.71 7.74,-1.87 13.44,-4.8 17.22,-8.87 2.09,-2.2 3.62,-5.93 4.63,-11.24 0.96,-5.31 1.47,-12.48 1.47,-21.52 0,-18.29 -1.87,-29.76 -5.53,-34.44 -3.67,-4.69 -10.96,-7.52 -21.86,-8.36l-76.01 -5.99c-22.76,-1.75 -38.46,-7.46 -47.16,-17.06 -8.75,-9.6 -13.1,-25.75 -13.1,-48.52 0,-14.34 1.41,-25.86 4.29,-34.56 2.88,-8.7 7.51,-15.92 13.95,-21.69 4.91,-4.4 11.92,-7.51 20.84,-9.37 8.92,-1.81 24.74,-2.71 47.32,-2.71l8.81 0c25.25,0 43.04,1.24 53.37,3.67 10.33,2.43 18.92,6.61 25.92,12.54 4.75,4 8.25,9.65 10.51,16.99 2.26,7.35 3.39,16.49 3.39,27.45 0,3.16 -0.06,5.65 -0.11,7.35 -0.06,1.69 -0.11,3.22 -0.23,4.57l-27.45 0 0 -6.16c0,-9.04 -0.5,-15.93 -1.58,-20.73 -1.02,-4.8 -2.71,-8.35 -5.03,-10.67 -3.45,-3.44 -9.54,-5.82 -18.3,-7.17 -8.81,-1.41 -25.42,-2.09 -49.98,-2.09 -25.36,0 -41.34,2.88 -47.84,8.58 -6.5,5.76 -9.77,17.22 -9.77,34.39 0,14.12 2.15,23.89 6.38,29.19 4.24,5.37 12.42,8.53 24.57,9.55l77.54 6.44c20.27,1.75 34.45,7.35 42.64,16.77 8.13,9.43 12.2,25.19 12.2,47.27 0,16.09 -1.07,28.23 -3.16,36.37 -2.09,8.08 -5.54,14.85 -10.39,20.27 -5.99,6.72 -14.01,11.41 -24.06,14.12 -10.1,2.71 -28.46,4.06 -55.17,4.06l-12.26 0c-22.7,0 -38.74,-1.19 -48.17,-3.5 -9.43,-2.31 -17.28,-6.33 -23.61,-12.08 -6.16,-5.31 -10.73,-12.48 -13.61,-21.52 -2.94,-9.04 -4.4,-20.56 -4.4,-34.45l0 -12.08zm368.28 35.86l0 -18.36c0,-8.3 -4.23,-14.34 -12.65,-18.19 -8.42,-3.89 -21.86,-5.82 -40.26,-5.82 -16.83,0 -28.13,2.15 -33.77,6.38 -5.7,4.23 -8.53,12.37 -8.53,24.4 0,13.72 2.99,22.82 9.03,27.39 5.99,4.57 18.02,6.89 36.09,6.89 16.21,0 28.57,-1.98 37.22,-5.87 8.59,-3.9 12.88,-9.55 12.88,-16.83zm1.3 26.04c-3.95,7.28 -10.27,12.54 -18.92,15.81 -8.7,3.27 -20.67,4.91 -36.03,4.91 -27.22,0 -45.52,-3.9 -54.78,-11.69 -9.26,-7.79 -13.89,-22.25 -13.89,-43.49 0,-12.25 1.07,-21.86 3.22,-28.8 2.14,-6.95 5.7,-12.54 10.67,-16.72 4.18,-3.56 10.33,-6.04 18.47,-7.51 8.14,-1.52 19.77,-2.26 35.01,-2.26 15.76,0 27.84,1.3 36.15,3.9 8.36,2.59 14.63,6.89 18.81,12.99l0 -30.05c0,-14.23 -2.77,-23.44 -8.25,-27.67 -5.53,-4.18 -19.37,-6.27 -41.51,-6.27 -16.1,0 -26.83,1.7 -32.14,5.08 -5.25,3.33 -8.02,9.66 -8.24,18.98l-25.76 0 0 -4.01c0,-14.91 4.8,-25.53 14.46,-31.85 9.66,-6.38 26.32,-9.54 49.93,-9.54 18.41,0 32.42,0.79 42.02,2.31 9.6,1.53 16.72,4.01 21.35,7.46 5.08,3.95 8.64,8.86 10.73,14.73 2.09,5.82 3.16,15.87 3.16,30.1l0 121.93 -23.44 0 -1.02 -18.35zm111.55 -82.85l0 28.4c0,18.07 4.24,31.23 12.65,39.48 8.42,8.19 21.96,12.31 40.6,12.31 16.83,0 28.07,-3.05 33.61,-9.09 5.59,-6.04 8.35,-20.05 8.35,-42.02l0 -29.76c0,-22.08 -2.76,-36.14 -8.35,-42.19 -5.53,-6.04 -16.77,-9.09 -33.61,-9.09 -18.64,0 -32.18,4.12 -40.6,12.31 -8.42,8.24 -12.65,21.4 -12.65,39.64zm-25.75 101.2l0 -246.34 25.75 0 0 96.97c4.97,-9.6 11.63,-16.55 20.11,-20.78 8.42,-4.24 19.77,-6.38 34.11,-6.38 24.79,0 42.3,5.14 52.46,15.42 10.22,10.22 15.31,28.07 15.31,53.42l0 41.39c0,25.25 -5.08,43.04 -15.31,53.25 -10.16,10.28 -27.67,15.42 -52.46,15.42 -14.97,0 -26.88,-2.37 -35.69,-7.06 -8.81,-4.68 -15.31,-12.03 -19.54,-22.08l0 26.77 -24.74 0zm203.38 -217.2l0 -29.14 25.75 0 0 29.14 -25.75 0zm0 217.2l0 -174.17 25.75 0 0 174.17 -25.75 0zm88.4 0l0 -174.17 24.73 0 0 23.83c4.24,-8.98 10.95,-15.59 20.22,-19.82 9.26,-4.24 21.46,-6.38 36.71,-6.38 22.82,0 38.8,4.63 47.95,13.84 9.15,9.2 13.73,25.41 13.73,48.57l0 114.14 -25.75 0 0 -108.66c0,-18.18 -2.66,-30.16 -8.02,-35.91 -5.37,-5.71 -15.76,-8.59 -31.18,-8.59 -18.24,0 -31.51,4.18 -39.98,12.48 -8.42,8.36 -12.65,21.46 -12.65,39.48l0 101.2 -25.75 0zm279.21 -220.25l0 -26.09 184.33 0 0 26.09 -78.62 0 0 220.25 -27.45 0 0 -220.25 -78.27 0zm181.75 116.23l98.61 0 0 -6.78c0,-16.32 -2.94,-27.39 -8.76,-33.27 -5.87,-5.82 -17.45,-8.75 -34.73,-8.75l-12.08 0c-17.22,0 -28.69,2.93 -34.45,8.75 -5.7,5.88 -8.58,16.95 -8.58,33.27l0 6.78zm43.38 106.39c-26.04,0 -44.22,-5.08 -54.61,-15.25 -10.34,-10.1 -15.53,-27.96 -15.53,-53.48l0 -41.28c0,-25.64 5.14,-43.49 15.47,-53.65 10.28,-10.17 28.41,-15.25 54.33,-15.25l12.08 0c26.04,0 44.28,5.08 54.67,15.25 10.38,10.16 15.58,28.01 15.58,53.65l0 26.32 -125.38 0.17c-0.11,1.75 -0.17,3.73 -0.23,5.82 -0.06,2.15 -0.11,5.14 -0.11,8.98 0,18.02 2.88,30.05 8.64,36.15 5.7,6.15 17.28,9.2 34.73,9.2l12.08 0c15.53,0 26.32,-2.26 32.42,-6.72 6.05,-4.46 9.61,-12.26 10.56,-23.44l26.94 0c-1.3,18.92 -7.4,32.53 -18.24,40.94 -10.85,8.41 -27.96,12.59 -51.4,12.59l-12.03 0zm168.76 23.15c0,13.84 -2.94,24.12 -8.81,30.95 -5.82,6.83 -14.68,10.28 -26.55,10.28 -1.52,0 -3.33,-0.06 -5.36,-0.23 -2.04,-0.17 -4.3,-0.45 -6.72,-0.79l-0.17 -20.33 8.92 0c4.74,0 8.02,-1.98 9.88,-5.87 1.81,-3.95 2.72,-13.22 2.72,-27.95l0 -185.75 26.09 0 0 199.69zm-26.09 -242.73l0 -29.14 26.09 0 0 29.14 -26.09 0zm201.96 172.81l0 -18.36c0,-8.3 -4.23,-14.34 -12.65,-18.19 -8.42,-3.89 -21.86,-5.82 -40.26,-5.82 -16.83,0 -28.13,2.15 -33.77,6.38 -5.7,4.23 -8.53,12.37 -8.53,24.4 0,13.72 2.99,22.82 9.03,27.39 5.99,4.57 18.02,6.89 36.09,6.89 16.21,0 28.57,-1.98 37.22,-5.87 8.59,-3.9 12.88,-9.55 12.88,-16.83zm1.3 26.04c-3.95,7.28 -10.27,12.54 -18.92,15.81 -8.7,3.27 -20.67,4.91 -36.03,4.91 -27.22,0 -45.52,-3.9 -54.78,-11.69 -9.26,-7.79 -13.89,-22.25 -13.89,-43.49 0,-12.25 1.07,-21.86 3.22,-28.8 2.14,-6.95 5.7,-12.54 10.67,-16.72 4.18,-3.56 10.33,-6.04 18.47,-7.51 8.14,-1.52 19.77,-2.26 35.01,-2.26 15.76,0 27.84,1.3 36.15,3.9 8.36,2.59 14.63,6.89 18.81,12.99l0 -30.05c0,-14.23 -2.77,-23.44 -8.25,-27.67 -5.53,-4.18 -19.37,-6.27 -41.51,-6.27 -16.1,0 -26.83,1.7 -32.14,5.08 -5.25,3.33 -8.02,9.66 -8.24,18.98l-25.76 0 0 -4.01c0,-14.91 4.8,-25.53 14.46,-31.85 9.66,-6.38 26.32,-9.54 49.93,-9.54 18.41,0 32.42,0.79 42.02,2.31 9.6,1.53 16.72,4.01 21.35,7.46 5.08,3.95 8.64,8.86 10.73,14.73 2.09,5.82 3.16,15.87 3.16,30.1l0 121.93 -23.44 0 -1.02 -18.35zm85.12 18.35l0 -174.17 25.07 0 0 23.83c3.67,-9.09 9.32,-15.7 17.06,-19.88 7.74,-4.24 17.96,-6.33 30.78,-6.33 18.97,0 32.3,4.57 39.92,13.72 7.68,9.2 11.52,25.41 11.52,48.68l0 1.36 -26.09 0 0 -5.14c0,-13.89 -2.21,-23.26 -6.61,-28.06 -4.4,-4.8 -12.71,-7.18 -24.96,-7.18 -14.3,0 -24.63,4.07 -31.01,12.14 -6.38,8.13 -9.6,21.4 -9.6,39.81l0 101.2 -26.09 0zm281.88 -44.39l0 -18.36c0,-8.3 -4.24,-14.34 -12.65,-18.19 -8.42,-3.89 -21.86,-5.82 -40.26,-5.82 -16.83,0 -28.13,2.15 -33.78,6.38 -5.7,4.23 -8.52,12.37 -8.52,24.4 0,13.72 2.99,22.82 9.03,27.39 5.99,4.57 18.02,6.89 36.09,6.89 16.21,0 28.57,-1.98 37.22,-5.87 8.59,-3.9 12.88,-9.55 12.88,-16.83zm1.3 26.04c-3.95,7.28 -10.28,12.54 -18.92,15.81 -8.7,3.27 -20.67,4.91 -36.03,4.91 -27.22,0 -45.52,-3.9 -54.78,-11.69 -9.26,-7.79 -13.89,-22.25 -13.89,-43.49 0,-12.25 1.07,-21.86 3.22,-28.8 2.14,-6.95 5.7,-12.54 10.67,-16.72 4.17,-3.56 10.33,-6.04 18.46,-7.51 8.14,-1.52 19.77,-2.26 35.02,-2.26 15.76,0 27.84,1.3 36.14,3.9 8.36,2.59 14.63,6.89 18.81,12.99l0 -30.05c0,-14.23 -2.77,-23.44 -8.25,-27.67 -5.53,-4.18 -19.37,-6.27 -41.51,-6.27 -16.1,0 -26.83,1.7 -32.14,5.08 -5.25,3.33 -8.01,9.66 -8.24,18.98l-25.76 0 0 -4.01c0,-14.91 4.8,-25.53 14.46,-31.85 9.66,-6.38 26.32,-9.54 49.93,-9.54 18.41,0 32.42,0.79 42.02,2.31 9.6,1.53 16.71,4.01 21.34,7.46 5.08,3.95 8.64,8.86 10.73,14.73 2.09,5.82 3.16,15.87 3.16,30.1l0 121.93 -23.44 0 -1.02 -18.35zm68.18 -133.79l0 -22.03 21.35 0 0 -39.3 25.75 0 0 39.3 85.39 0 0 22.03 -85.39 0 0 95.89c0,13.67 2.26,22.98 6.72,27.9 4.46,4.91 12.99,7.34 25.53,7.34 12.48,0 20.9,-2.37 25.24,-7.12 4.35,-4.74 6.55,-14.12 6.55,-28.12l0 -5.08 26.15 0 0 1.47c0,24.51 -4.06,41 -12.14,49.48 -8.13,8.52 -24.97,12.76 -50.55,12.76 -19.94,0 -33.83,-4.51 -41.62,-13.5 -7.74,-8.98 -11.63,-25.24 -11.63,-48.74l0 -92.27 -21.35 0zm336.08 64.72l106.74 0 -49.19 -132.77 -8.75 0 -48.8 132.77zm-60.26 87.42l91.04 -246.34 44.84 0 91.49 246.34 -28.12 0 -23.49 -63.03 -124.64 0 -22.98 63.03 -28.13 0zm266.29 0l0 -174.17 25.07 0 0 23.83c3.67,-9.09 9.32,-15.7 17.06,-19.88 7.74,-4.24 17.96,-6.33 30.78,-6.33 18.97,0 32.3,4.57 39.92,13.72 7.68,9.2 11.52,25.41 11.52,48.68l0 1.36 -26.09 0 0 -5.14c0,-13.89 -2.21,-23.26 -6.61,-28.06 -4.4,-4.8 -12.71,-7.18 -24.96,-7.18 -14.3,0 -24.63,4.07 -31.01,12.14 -6.38,8.13 -9.6,21.4 -9.6,39.81l0 101.2 -26.09 0zm143.12 -174.17l25.81 0 51.79 149.83 51.45 -149.83 25.47 0 -65.68 189.42c-7.17,20.44 -14.46,34.33 -21.91,41.62 -7.45,7.29 -17.45,10.9 -30.04,10.9 -1.87,0 -3.96,-0.06 -6.21,-0.23 -2.26,-0.17 -4.68,-0.51 -7.34,-0.9l0.17 -22.59c0.79,0.11 1.75,0.17 2.88,0.23 1.19,0.06 2.82,0.11 4.91,0.11 7.91,0 14.07,-1.81 18.41,-5.37 4.35,-3.61 8.47,-10.61 12.31,-20.95l6.5 -18.07 -7.79 0 -60.71 -174.17zm307.29 129.78l0 -18.36c0,-8.3 -4.24,-14.34 -12.65,-18.19 -8.41,-3.89 -21.85,-5.82 -40.26,-5.82 -16.83,0 -28.12,2.15 -33.77,6.38 -5.7,4.23 -8.52,12.37 -8.52,24.4 0,13.72 2.99,22.82 9.03,27.39 5.99,4.57 18.02,6.89 36.09,6.89 16.21,0 28.57,-1.98 37.22,-5.87 8.58,-3.9 12.88,-9.55 12.88,-16.83zm1.3 26.04c-3.95,7.28 -10.28,12.54 -18.92,15.81 -8.7,3.27 -20.67,4.91 -36.03,4.91 -27.22,0 -45.52,-3.9 -54.78,-11.69 -9.26,-7.79 -13.9,-22.25 -13.9,-43.49 0,-12.25 1.08,-21.86 3.22,-28.8 2.15,-6.95 5.7,-12.54 10.68,-16.72 4.17,-3.56 10.33,-6.04 18.46,-7.51 8.14,-1.52 19.77,-2.26 35.02,-2.26 15.76,0 27.84,1.3 36.14,3.9 8.36,2.59 14.63,6.89 18.81,12.99l0 -30.05c0,-14.23 -2.77,-23.44 -8.25,-27.67 -5.53,-4.18 -19.37,-6.27 -41.51,-6.27 -16.1,0 -26.83,1.7 -32.14,5.08 -5.25,3.33 -8.02,9.66 -8.24,18.98l-25.76 0 0 -4.01c0,-14.91 4.8,-25.53 14.46,-31.85 9.66,-6.38 26.32,-9.54 49.93,-9.54 18.41,0 32.42,0.79 42.02,2.31 9.6,1.53 16.71,4.01 21.34,7.46 5.08,3.95 8.64,8.86 10.73,14.73 2.09,5.82 3.16,15.87 3.16,30.1l0 121.93 -23.44 0 -1.02 -18.35z"/>
  <circle class="fil0" cx="2573.85" cy="696.04" r="33.4"/>
  <circle class="fil0" cx="2466.31" cy="696.04" r="33.4"/>
  <circle class="fil0" cx="2393.37" cy="696.04" r="33.4"/>
  <circle class="fil0" cx="2107.17" cy="271.86" r="33.4"/>
  <circle class="fil0" cx="1845.62" cy="271.06" r="33.4"/>
  <circle class="fil0" cx="1772.67" cy="271.06" r="33.4"/>
  <circle class="fil0" cx="1676.33" cy="696.04" r="33.4"/>
  <circle class="fil0" cx="796.4" cy="271.06" r="33.4"/>
  <circle class="fil0" cx="723.46" cy="271.06" r="33.4"/>
  <circle class="fil0" cx="175.72" cy="696.04" r="33.4"/>
  <path class="fil2" d="M506.33 273.22c3.33,-2.24 5.36,-4.47 6.16,-6.76l0 -14.3 0 -10.72 0 -7.64c-9.14,5.26 -16.09,7.94 -20.96,7.94 -4.87,0 -11.04,-1.59 -18.38,-4.57 -7.35,-2.98 -14.7,-4.47 -22.05,-4.47 -7.45,0 -14.7,2.48 -21.85,7.55l0 11.92 0 20.97c10.43,-6.56 18.59,-9.08 24.43,-7.46 5.87,1.64 11.82,3.9 18.08,6.76 6.14,2.79 12.71,4.17 19.46,4.17 6.76,0 11.79,-1.16 15.1,-3.38z"/>
  <circle class="fil0" cx="99.33" cy="695.34" r="33.4"/>
 </g>
</svg>
